<?xml version="1.0" encoding="utf-8"?>
<!-- Generator: Adobe Illustrator 24.3.0, SVG Export Plug-In . SVG Version: 6.00 Build 0)  -->
<svg version="1.1" id="Шар_1" xmlns="http://www.w3.org/2000/svg" xmlns:xlink="http://www.w3.org/1999/xlink" x="0px" y="0px"
	 viewBox="0 0 60 60" style="enable-background:new 0 0 60 60;" xml:space="preserve">
<style type="text/css">
	.st0{fill:#00B800;}
	.st1{fill:#FFFFFF;}
</style>
<circle class="st0" cx="30" cy="30" r="30"/>
<path class="st1" d="M24.83,41.28L14.22,30.67c-1.37-1.37-1.37-3.58,0-4.95l0,0c1.37-1.37,3.58-1.37,4.95,0l10.61,10.61
	c1.37,1.37,1.37,3.58,0,4.95l0,0C28.41,42.65,26.2,42.65,24.83,41.28z"/>
<path class="st1" d="M25.21,36.26l18.05-18.05c1.37-1.37,3.58-1.37,4.95,0l0,0c1.37,1.37,1.37,3.58,0,4.95L30.16,41.21
	c-1.37,1.37-3.58,1.37-4.95,0l0,0C23.84,39.84,23.84,37.63,25.21,36.26z"/>
</svg>
