<?xml version="1.0" encoding="utf-8"?>
<!-- Generator: Adobe Illustrator 24.3.0, SVG Export Plug-In . SVG Version: 6.00 Build 0)  -->
<svg version="1.1" id="Шар_1" xmlns="http://www.w3.org/2000/svg" xmlns:xlink="http://www.w3.org/1999/xlink" x="0px" y="0px"
	 viewBox="0 0 60 60" style="enable-background:new 0 0 60 60;" xml:space="preserve">
<style type="text/css">
	.st0{fill:#DAF3FA;}
	.st1{fill:none;}
	.st2{enable-background:new    ;}
	.st3{fill:#FFFFFF;stroke:#D4EDFF;stroke-width:0.25;stroke-miterlimit:10;}
</style>
<g>
	<circle class="st0" cx="30" cy="30" r="30"/>
</g>
<rect x="16.28" y="11.06" class="st1" width="27.36" height="38.12"/>
<g class="st2">
	<path class="st3" d="M32.02,37.57h-5.12v-3.54c0-1.19,0.24-2.12,0.72-2.81c0.48-0.68,1.54-1.65,3.16-2.91
		c2.48-1.91,3.73-3.93,3.73-6.06c0-1.61-0.49-2.89-1.46-3.83S30.82,17,29.27,17c-3.6,0-5.73,2.49-6.38,7.48l-5.72-1.02
		c0.35-3.73,1.73-6.65,4.13-8.78c2.4-2.13,5.29-3.19,8.65-3.19c3.34,0,6.1,0.99,8.29,2.98c2.19,1.99,3.28,4.46,3.28,7.41
		c0,1.47-0.3,2.86-0.91,4.19s-1.29,2.34-2.06,3.07c-0.77,0.73-2.4,2-4.88,3.82c-0.7,0.51-1.15,1-1.34,1.48
		C32.14,34.92,32.04,35.96,32.02,37.57z M33.07,41.3v6.56h-6.17V41.3H33.07z"/>
</g>
</svg>
