<?xml version="1.0" encoding="utf-8"?>
<!-- Generator: Adobe Illustrator 24.3.0, SVG Export Plug-In . SVG Version: 6.00 Build 0)  -->
<svg version="1.1" id="Шар_1" xmlns="http://www.w3.org/2000/svg" xmlns:xlink="http://www.w3.org/1999/xlink" x="0px" y="0px"
	 viewBox="0 0 60 60" style="enable-background:new 0 0 60 60;" xml:space="preserve">
<style type="text/css">
	.st0{fill:#FFFFFF;}
	.st1{fill:#999999;}
</style>
<g>
	<circle class="st0" cx="30" cy="30" r="28.5"/>
	<path class="st1" d="M30,3c14.89,0,27,12.11,27,27S44.89,57,30,57S3,44.89,3,30S15.11,3,30,3 M30,0C13.43,0,0,13.43,0,30
		s13.43,30,30,30s30-13.43,30-30S46.57,0,30,0L30,0z"/>
</g>
<g>
	<path class="st1" d="M29.5,51.5c-2.21,0-4-1.79-4-4v-20c0-2.21,1.79-4,4-4c2.21,0,4,1.79,4,4v20C33.5,49.71,31.71,51.5,29.5,51.5z"
		/>
	<path class="st1" d="M29.5,24c1.93,0,3.5,1.57,3.5,3.5v20c0,1.93-1.57,3.5-3.5,3.5S26,49.43,26,47.5v-20C26,25.57,27.57,24,29.5,24
		 M29.5,23c-2.48,0-4.5,2.02-4.5,4.5v20c0,2.47,2.02,4.5,4.5,4.5s4.5-2.03,4.5-4.5v-20C34,25.02,31.98,23,29.5,23L29.5,23z"/>
</g>
<g>
	<circle class="st1" cx="29.5" cy="16.5" r="4"/>
	<path class="st1" d="M29.5,13c1.93,0,3.5,1.57,3.5,3.5S31.43,20,29.5,20S26,18.43,26,16.5S27.57,13,29.5,13 M29.5,12
		c-2.49,0-4.5,2.01-4.5,4.5s2.01,4.5,4.5,4.5s4.5-2.01,4.5-4.5S31.99,12,29.5,12L29.5,12z"/>
</g>
</svg>
